<?xml version="1.0" encoding="utf-8"?>
<!-- Generator: Adobe Illustrator 19.0.0, SVG Export Plug-In . SVG Version: 6.00 Build 0)  -->
<svg version="1.1" id="Layer_1" xmlns="http://www.w3.org/2000/svg" xmlns:xlink="http://www.w3.org/1999/xlink" x="0px" y="0px"
	 viewBox="502 288.2 1600.5 265.7" style="enable-background:new 502 288.2 1600.5 265.7;" xml:space="preserve">
<style type="text/css">
	.st0{opacity:0.5;fill:#FFFFFF;enable-background:new    ;}
	.st1{fill:#FFFFFF;}
</style>
<path class="st0" d="M2102,452.5c-9.5,9.4-99.2,28.6-107.2,29.9c-114.8,18.1-233.4,8.3-347.4-11.4
	c-220.2-38.3-416.6-149.8-644.8-168.8c-173-14.4-357.1-42.1-500.6,72.1v179.3h1600C2102,553.7,2102,452.5,2102,452.5z"/>
<path class="st1" d="M2102.5,492c-5,4-44,14.4-47.4,15.2c-46.1,11.7-93.9,17.2-141.4,19.1c-108.1,4.2-217.7-12.5-323.3-38.3
	c-106-25.9-205.9-70.6-307.6-109.2c-191.9-72.9-429-122.4-631.3-64.5c-45.5,13-89.2,32.6-128.2,59.4c-3.1,2.1-21.8,12.7-21.8,16.1
	v163.8H2102C2102,553.7,2102.5,492.1,2102.5,492z"/>
</svg>
